<?xml version="1.0"?>
<svg xmlns="http://www.w3.org/2000/svg" viewBox="0 0 24 24"><g id="Icon"><path d="M4.75,15v4a3.08,3.08,0,0,0,.09.75H4A1.76,1.76,0,0,1,2.25,18V15a4.7,4.7,0,0,1,1.2-3.15A5.19,5.19,0,0,0,5.12,12.9,6.15,6.15,0,0,0,4.75,15ZM7,10.24a5.66,5.66,0,0,1,.3-6,1.14,1.14,0,0,0-.26,0,3.75,3.75,0,0,0-1.2,7.3A6,6,0,0,1,7,10.24Zm5,1.51A4.25,4.25,0,1,0,7.75,7.5,4.26,4.26,0,0,0,12,11.75Zm4.16-.3a5.71,5.71,0,0,1-8.32,0A4.77,4.77,0,0,0,6.25,15v4A1.76,1.76,0,0,0,8,20.75h8A1.76,1.76,0,0,0,17.75,19V15A4.77,4.77,0,0,0,16.16,11.45ZM20.75,8A3.75,3.75,0,0,0,17,4.25a1.14,1.14,0,0,0-.26,0,5.66,5.66,0,0,1,.3,6,6,6,0,0,1,1.16,1.31A3.75,3.75,0,0,0,20.75,8Zm-.2,3.85a5.19,5.19,0,0,1-1.67,1.05,6.15,6.15,0,0,1,.37,2.1v4a3.08,3.08,0,0,1-.09.75H20A1.76,1.76,0,0,0,21.75,18V15A4.71,4.71,0,0,0,20.55,11.85Z"/></g></svg>
