<svg id="ghylp" height="512" viewBox="0 0 64 64" width="512" xmlns="http://www.w3.org/2000/svg"><g fill="rgb(0,0,0)"><path d="m25.4 41.66c-.02345-.46173 31.4747-35.10183 33.13987-36.69008l-53.99987 28.12008a1.009 1.009 0 0 0 .12 1.83l20.7 7.44z"/><path d="m59.74 6.53c-3.94355 4.328-28.15867 30.926-32.36 35.54l-.05.99c1.49808.54461 25.13 9.03 25.13 9.03a1.03989 1.03989 0 0 0 .85-.09 1.00627 1.00627 0 0 0 .48-.72c-.2882.43 6.82685-47.26164 5.95-44.75z"/><path d="m25.29 43.92-.69 14.17a1.007 1.007 0 0 0 1.78.67994l9.04-11.20994c-1.31366-.46356-10.13-3.64-10.13-3.64z"/></g></svg>